/* XPM */
static const char *bb914c4aca585a65d341ab4cd52babcf35564cfd96a6b0ad0496ce695350d2d6[] = {
/* columns rows colors chars-per-pixel */
"30 17 158 2 ",
"   c #7E383E",
".  c #6F4F25",
"X  c #7C5A29",
"o  c #785424",
"O  c #655435",
"+  c #705A34",
"@  c #153C50",
"#  c #7B3640",
"$  c #783B41",
"%  c #304657",
"&  c #20516C",
"*  c #2D5666",
"=  c #375966",
"-  c #32586A",
";  c #235975",
":  c #757254",
">  c #766A48",
",  c #454F60",
"<  c #4D6367",
"1  c #4D6872",
"2  c #5B6678",
"3  c #757B79",
"4  c #802C32",
"5  c #875D27",
"6  c #846232",
"7  c #A06B2A",
"8  c #8D7A4F",
"9  c #887651",
"0  c #A97841",
"q  c #B98438",
"w  c #C9862E",
"e  c #CA882C",
"r  c #C68C39",
"t  c #CA8F3D",
"y  c #D5973F",
"u  c #E89D37",
"i  c #E39D3C",
"p  c #958452",
"a  c #AE9457",
"s  c #938D6A",
"d  c #8C8571",
"f  c #938372",
"g  c #A3916A",
"h  c #AA9C7C",
"j  c #BAA172",
"k  c #D39D4F",
"l  c #E59F41",
"z  c #F6AD49",
"x  c #FFB84A",
"c  c #FCB552",
"v  c #FFBD54",
"b  c #F2B35B",
"n  c #CBA56A",
"m  c #D3AB6C",
"M  c #2D6D8C",
"N  c #386681",
"B  c #35728C",
"V  c #3E768E",
"C  c #3A789C",
"Z  c #4E7B8F",
"A  c #507487",
"S  c #51778B",
"D  c #417E9A",
"F  c #517F92",
"G  c #577C98",
"H  c #61728C",
"J  c #747282",
"K  c #6A7D91",
"L  c #447FA1",
"P  c #3C83A2",
"I  c #3F89A7",
"U  c #3585A6",
"Y  c #3B8FBD",
"T  c #3F93BE",
"R  c #4E8193",
"E  c #49849D",
"W  c #46839A",
"Q  c #58899D",
"!  c #558598",
"~  c #7C8D89",
"^  c #7C9685",
"/  c #788195",
"(  c #7E9A93",
")  c #4B8AA8",
"_  c #5493AD",
"`  c #5E94A8",
"'  c #408EBA",
"]  c #4191BD",
"[  c #489ABD",
"{  c #4996BB",
"}  c #5695B8",
"|  c #589EB9",
" . c #6490A7",
".. c #6B92A6",
"X. c #6299BB",
"o. c #7AACAA",
"O. c #4499C4",
"+. c #4A9CC6",
"@. c #539EC5",
"#. c #49A0C5",
"$. c #4BA2CD",
"%. c #4EA8CD",
"&. c #59A4CB",
"*. c #59ACCD",
"=. c #57A5C6",
"-. c #4DA5D1",
";. c #47A8D6",
":. c #4AADD9",
">. c #48ACD9",
",. c #50A9D4",
"<. c #5AAED0",
"1. c #55AED9",
"2. c #4EB2DD",
"3. c #5BB2D3",
"4. c #57B1DC",
"5. c #58B3DE",
"6. c #5DB9DE",
"7. c #64A0C0",
"8. c #62ADC2",
"9. c #68B0C0",
"0. c #7ABBC7",
"q. c #67B9D0",
"w. c #6EB8D6",
"e. c #64B4D4",
"r. c #4DB8E7",
"t. c #53B5E1",
"y. c #5AB6E1",
"u. c #54BAE5",
"i. c #5DBBE5",
"p. c #55BFEA",
"a. c #5ABEE9",
"s. c #4CBFF2",
"d. c #60BEE9",
"f. c #55C0EC",
"g. c #5BC3EE",
"h. c #4EC1F4",
"j. c #4EC5FA",
"k. c #4EC8FD",
"l. c #53C3F2",
"z. c #5AC6F2",
"x. c #54C8F5",
"c. c #50C7FC",
"v. c #52CCFB",
"b. c #62C4EE",
"n. c #71C5E8",
"m. c #73C8EB",
"M. c #63C6F0",
"N. c #65C8F2",
"B. c #65D0FC",
"V. c #839C88",
"C. c #8D9B99",
"Z. c #86C3CA",
"A. c #9BCADD",
"S. c #8AD3F1",
"D. c #AAD5E7",
"F. c #A0D7EE",
"G. c #BFD8E4",
"H. c #D3E6F0",
/* pixels */
"g.g.f.f.f.f.f.p.f.g.f.f.g.f.f.f.f.f.f.f.f.f.f.f.g.M.M.g.p.f.",
"M.M.g.f.f.f.f.f.M.M.g.M.M.g.g.M.M.f.f.f.f.f.p.f.M.M.M.b.g.g.",
"M.M.g.f.g.N.b.a.p.p.M.M.M.M.M.g.g.f.f.f.f.p.g.M.M.M.M.M.M.g.",
"M.M.M.f.M.b.4.$.4.i.d.b.M.M.M.g.p.f.f.p.u.,.4.i.M.M.b.g.f.f.",
"M.M.g.p.g.1.y.' O.] O.t.g.f.p.f.l.p.f.:.,.O.Y -.+.t.f.f.f.f.",
"g.g.f.f.z.i.$.X.J ) l.:.p.m.F.D.A.n.p.u.>.&.K C :.>.p.f.f.f.",
"f.f.f.f.M.b.B.7.# , B :.S.H.G...A F z.z.2.S   G s.t.f.f.f.f.",
"f.f.g.g.i.-.t.p.f.f.I * S  .N = = ; [ V - P T ;.2.p.f.f.f.f.",
"f.g.N.b.,.@.{ T $.%.#.& @ < 8 k r > = M :.t.&.) O.2.f.p.f.f.",
"f.M.g.g.l./ $ D P P W s g n v b u t 9 a R U J   +.l.f.l.f.f.",
"f.f.f.p.x.} H u.z.k.Z.x m j c b i r d 0 ~ B % 2 _ | ) E _ E ",
"f.f.f.f.p.x.v.f.p.s.0.c m h z y e q 3 f C.1 1 ` R ` ! Z Q ! ",
"f.f.f.f.f.p.p.f.f.h.0.l w 6 X X X o 5 7 ( =.=.*.*.*.*.3.<.*.",
"f.f.f.f.f.f.f.f.f.f.f.8.^ : O . + p V.9.f.l.l.l.x.l.l.l.l.l.",
"f.f.f.f.f.f.f.f.f.f.f.l.c.h.q.o.3.h.j.l.f.p.p.p.p.p.p.p.p.p.",
"p.a.p.f.f.f.f.f.f.f.f.p.p.f.l.j.l.p.p.p.f.f.f.f.f.f.f.f.f.f.",
"e.w.6.f.f.f.f.f.f.f.f.f.f.f.p.p.p.f.f.f.f.f.f.f.f.f.f.f.f.f."
};
